<svg width="143" height="42" viewBox="0 0 143 42" fill="none" xmlns="http://www.w3.org/2000/svg">
<path d="M60.9378 27.509H68.5983V29.5782H58.541V11.3868H60.9378V27.509Z" fill="#1D4ED8"/>
<path d="M73.8367 12.6816C73.8367 12.9018 73.7934 13.1069 73.7068 13.2973C73.6204 13.4877 73.5049 13.6571 73.3611 13.8052C73.2168 13.9533 73.05 14.0699 72.8607 14.1542C72.6711 14.2388 72.4694 14.2811 72.2553 14.2811C72.041 14.2811 71.8412 14.2388 71.6558 14.1542C71.4705 14.0697 71.3057 13.9533 71.1616 13.8052C71.0172 13.6571 70.904 13.4877 70.8217 13.2973C70.7393 13.1069 70.6982 12.9018 70.6982 12.6816C70.6982 12.4617 70.7393 12.2522 70.8217 12.0533C70.904 11.8545 71.0172 11.681 71.1616 11.5327C71.3055 11.3848 71.4705 11.2682 71.6558 11.1836C71.8412 11.0991 72.0408 11.0566 72.2553 11.0566C72.4692 11.0566 72.6709 11.0991 72.8607 11.1836C73.0498 11.2682 73.2168 11.3848 73.3611 11.5327C73.5049 11.6808 73.6204 11.8545 73.7068 12.0533C73.7934 12.2522 73.8367 12.4617 73.8367 12.6816ZM73.3424 16.7186V29.5784H71.143V16.7186H73.3424Z" fill="#1D4ED8"/>
<path d="M77.296 29.5784V10.8789H79.5076V18.572C80.0266 17.9544 80.6218 17.457 81.2931 17.0804C81.9642 16.7039 82.7323 16.5155 83.5972 16.5155C84.322 16.5155 84.9769 16.6553 85.5618 16.9344C86.1465 17.2138 86.6447 17.6307 87.0567 18.1849C87.4687 18.7392 87.7856 19.4248 88.008 20.2414C88.2304 21.0582 88.3417 21.9997 88.3417 23.066C88.3417 24.0141 88.2182 24.8964 87.9711 25.713C87.7241 26.5298 87.3676 27.2364 86.9025 27.833C86.437 28.4296 85.8685 28.8994 85.1976 29.2421C84.5259 29.5848 83.7703 29.7561 82.9303 29.7561C82.1228 29.7561 81.437 29.5953 80.8732 29.2736C80.3087 28.9522 79.8168 28.5037 79.3965 27.9281L79.2854 29.096C79.2193 29.4178 79.0299 29.5784 78.7171 29.5784H77.296ZM82.8809 18.3181C82.1644 18.3181 81.536 18.4874 80.9967 18.826C80.4569 19.1645 79.9607 19.6428 79.5078 20.2604V26.481C79.9033 27.0395 80.3418 27.433 80.8239 27.6615C81.3056 27.89 81.843 28.0042 82.4362 28.0042C83.6059 28.0042 84.5037 27.5769 85.1295 26.722C85.7554 25.8673 86.0685 24.6486 86.0685 23.0658C86.0685 22.228 85.9962 21.5089 85.8524 20.9077C85.7081 20.3069 85.5004 19.8139 85.2285 19.4287C84.9566 19.0438 84.6231 18.7622 84.2277 18.5845C83.8322 18.4068 83.3831 18.3181 82.8809 18.3181Z" fill="#1D4ED8"/>
<path d="M91.035 29.5784V16.7186H92.2951C92.5339 16.7186 92.6985 16.7653 92.7896 16.8584C92.8802 16.9515 92.9416 17.1123 92.9749 17.3409L93.1233 19.3467C93.5513 18.4497 94.0807 17.7495 94.7109 17.2457C95.341 16.7422 96.0802 16.4903 96.9288 16.4903C97.2745 16.4903 97.5876 16.5306 97.8678 16.6108C98.1476 16.6914 98.4071 16.8034 98.6459 16.9471L98.3617 18.6355C98.3039 18.8472 98.1764 18.9528 97.9787 18.9528C97.8633 18.9528 97.6863 18.9127 97.4477 18.8323C97.2086 18.7521 96.8749 18.7118 96.4467 18.7118C95.6805 18.7118 95.0402 18.9403 94.5254 19.3974C94.0106 19.8544 93.5803 20.5189 93.2342 21.3905V29.5786H91.035V29.5784Z" fill="#1D4ED8"/>
<path d="M109.717 29.5784H108.741C108.526 29.5784 108.353 29.5447 108.222 29.4768C108.089 29.4092 108.003 29.2653 107.962 29.0451L107.715 27.8519C107.385 28.1566 107.064 28.4294 106.751 28.6707C106.438 28.9119 106.109 29.115 105.763 29.28C105.417 29.445 105.048 29.5699 104.657 29.6544C104.266 29.7388 103.831 29.7813 103.353 29.7813C102.867 29.7813 102.412 29.711 101.988 29.5713C101.564 29.4313 101.195 29.221 100.882 28.9407C100.569 28.6603 100.32 28.3057 100.135 27.8769C99.9495 27.448 99.8569 26.9406 99.8569 26.3547C99.8569 25.8454 99.993 25.3548 100.265 24.8835C100.536 24.4121 100.975 23.9938 101.581 23.6287C102.186 23.2636 102.979 22.9642 103.959 22.7307C104.939 22.4972 106.138 22.3803 107.554 22.3803V21.3711C107.554 20.3661 107.346 19.6062 106.931 19.091C106.514 18.5758 105.899 18.3181 105.083 18.3181C104.548 18.3181 104.097 18.388 103.73 18.5276C103.364 18.6673 103.046 18.824 102.779 18.9973C102.511 19.1708 102.28 19.3273 102.087 19.4671C101.893 19.6066 101.702 19.6765 101.512 19.6765C101.364 19.6765 101.234 19.6364 101.123 19.556C101.012 19.4758 100.923 19.3763 100.857 19.2578L100.462 18.5341C101.154 17.8485 101.899 17.3367 102.698 16.998C103.497 16.6597 104.383 16.4901 105.355 16.4901C106.055 16.4901 106.677 16.6088 107.22 16.8457C107.764 17.0828 108.221 17.4127 108.592 17.8358C108.963 18.2591 109.242 18.771 109.432 19.372C109.622 19.9729 109.716 20.6331 109.716 21.3522V29.5784H109.717ZM104.008 28.1946C104.395 28.1946 104.749 28.1545 105.071 28.074C105.392 27.9936 105.695 27.8795 105.979 27.7312C106.263 27.5833 106.535 27.4034 106.794 27.1917C107.054 26.9803 107.307 26.7391 107.554 26.468V23.8147C106.541 23.8147 105.68 23.8808 104.972 24.0127C104.263 24.1449 103.687 24.3172 103.243 24.5299C102.798 24.7427 102.474 24.9937 102.273 25.2831C102.071 25.5728 101.97 25.896 101.97 26.2536C101.97 26.5941 102.023 26.888 102.13 27.1347C102.238 27.3817 102.382 27.5839 102.563 27.7413C102.744 27.8987 102.958 28.0139 103.205 28.086C103.452 28.1584 103.72 28.1946 104.008 28.1946Z" fill="#1D4ED8"/>
<path d="M113.052 29.5784V16.7186H114.312C114.551 16.7186 114.716 16.7653 114.807 16.8584C114.897 16.9515 114.959 17.1123 114.992 17.3409L115.14 19.3467C115.568 18.4497 116.098 17.7495 116.728 17.2457C117.358 16.7422 118.097 16.4903 118.945 16.4903C119.292 16.4903 119.604 16.5306 119.884 16.6108C120.164 16.6914 120.424 16.8034 120.663 16.9471L120.379 18.6355C120.321 18.8472 120.193 18.9528 119.996 18.9528C119.88 18.9528 119.703 18.9127 119.464 18.8323C119.225 18.7521 118.892 18.7118 118.464 18.7118C117.698 18.7118 117.057 18.9403 116.542 19.3974C116.028 19.8544 115.597 20.5189 115.251 21.3905V29.5786H113.052V29.5784Z" fill="#1D4ED8"/>
<path d="M125.951 12.6816C125.951 12.9018 125.908 13.1069 125.821 13.2973C125.735 13.4877 125.619 13.6571 125.475 13.8052C125.331 13.9533 125.164 14.0699 124.975 14.1542C124.785 14.2388 124.584 14.2811 124.369 14.2811C124.155 14.2811 123.956 14.2388 123.77 14.1542C123.585 14.0697 123.42 13.9533 123.276 13.8052C123.132 13.6571 123.018 13.4877 122.936 13.2973C122.854 13.1069 122.813 12.9018 122.813 12.6816C122.813 12.4617 122.854 12.2522 122.936 12.0533C123.018 11.8545 123.132 11.681 123.276 11.5327C123.42 11.3848 123.585 11.2682 123.77 11.1836C123.956 11.0991 124.155 11.0566 124.369 11.0566C124.584 11.0566 124.785 11.0991 124.975 11.1836C125.164 11.2682 125.331 11.3848 125.475 11.5327C125.619 11.6808 125.735 11.8545 125.821 12.0533C125.908 12.2522 125.951 12.4617 125.951 12.6816ZM125.457 16.7186V29.5784H123.258V16.7186H125.457Z" fill="#1D4ED8"/>
<path d="M134.402 16.5155C135.316 16.5155 136.142 16.6724 136.879 16.9853C137.616 17.2986 138.243 17.7427 138.757 18.3183C139.272 18.8938 139.668 19.5899 139.944 20.4065C140.22 21.2233 140.358 22.1352 140.358 23.1422C140.358 24.1578 140.22 25.0719 139.944 25.8843C139.668 26.6967 139.272 27.3908 138.757 27.9662C138.243 28.5418 137.616 28.9839 136.879 29.2929C136.142 29.6016 135.316 29.7561 134.402 29.7561C133.488 29.7561 132.662 29.6016 131.925 29.2929C131.188 28.9839 130.56 28.5418 130.041 27.9662C129.522 27.3908 129.122 26.6967 128.842 25.8843C128.562 25.0719 128.422 24.1578 128.422 23.1422C128.422 22.1352 128.562 21.2233 128.842 20.4065C129.122 19.5899 129.522 18.8938 130.041 18.3183C130.56 17.7429 131.188 17.2986 131.925 16.9853C132.662 16.6722 133.488 16.5155 134.402 16.5155ZM134.402 27.9914C135.638 27.9914 136.56 27.5662 137.17 26.7156C137.779 25.865 138.084 24.6782 138.084 23.1547C138.084 21.623 137.779 20.4298 137.17 19.5748C136.56 18.7201 135.638 18.2927 134.402 18.2927C133.776 18.2927 133.232 18.4026 132.771 18.6228C132.31 18.843 131.925 19.1603 131.616 19.5748C131.307 19.9896 131.077 20.4994 130.924 21.1046C130.772 21.7098 130.695 22.3931 130.695 23.1547C130.695 23.9164 130.772 24.5978 130.924 25.1985C131.077 25.7995 131.307 26.3052 131.616 26.7156C131.925 27.1262 132.31 27.4415 132.771 27.6615C133.232 27.8816 133.776 27.9914 134.402 27.9914Z" fill="#1D4ED8"/>
<path d="M6.80635 39.8831C2.68503 39.8831 1.36001 39.1221 0.981659 38.7947L0.568909 38.4378V3.56105L0.982045 3.20407C1.3604 2.87727 2.68522 2.11685 6.80615 2.11685C10.9393 2.11685 12.2799 2.92492 12.5924 3.1727L13.0436 3.53027V38.5356L12.5087 38.8871C12.2558 39.0532 10.7909 39.8831 6.80635 39.8831ZM2.88773 37.1C3.47304 37.2719 4.65583 37.5006 6.80635 37.5006C8.8616 37.5006 10.0869 37.2574 10.7248 37.0706V4.90796C10.125 4.73165 8.93116 4.49916 6.80615 4.49916C4.65583 4.49916 3.47304 4.72748 2.88773 4.89942V37.1Z" fill="#1D4ED8"/>
<path d="M23.1892 39.8831C19.0679 39.8831 17.7429 39.1221 17.3645 38.7947L16.9518 38.4378V3.56105L17.3649 3.20407C17.7433 2.87727 19.0681 2.11685 23.189 2.11685C27.3221 2.11685 28.6628 2.92492 28.9753 3.1727L29.4265 3.53027V38.5356L28.8916 38.8871C28.6386 39.0532 27.1739 39.8831 23.1892 39.8831ZM19.2706 37.1C19.8559 37.2719 21.0387 37.5006 23.1892 37.5006C25.2445 37.5006 26.4698 37.2574 27.1076 37.0706V4.90796C26.5078 4.73165 25.314 4.49916 23.189 4.49916C21.0387 4.49916 19.8559 4.72748 19.2706 4.89942V37.1Z" fill="#1D4ED8"/>
<path d="M41.4561 39.8444C41.0602 39.8444 40.8084 39.7908 40.6598 39.741L40.1467 39.5688L27.4307 7.23149L27.6837 6.74149C27.9152 6.29278 28.8663 5.0779 32.6871 3.49175C36.5195 1.90083 38.0569 2.13412 38.4372 2.24352L38.986 2.40136L51.7488 34.858L51.381 35.3897C51.2069 35.6415 50.1513 36.9745 46.4568 38.5082C43.8435 39.5931 42.3129 39.8444 41.4561 39.8444ZM30.0688 7.57993L41.809 37.4359C42.4144 37.37 43.5943 37.127 45.5882 36.2992C47.4939 35.5081 48.5413 34.811 49.0647 34.3922L37.3385 4.57122C36.7182 4.63853 35.5263 4.88254 33.5559 5.70053C31.5621 6.52825 30.549 7.19516 30.0688 7.57993Z" fill="#1D4ED8"/>
</svg>
